<svg width="28" height="27" viewBox="0 0 28 27" fill="none" xmlns="http://www.w3.org/2000/svg">
<path d="M24.1865 20.9611L25.465 23.9114C25.7013 24.4552 26.3519 24.7124 26.9195 24.4865C27.4881 24.2629 27.7577 23.6401 27.5221 23.0961L26.2439 20.1467L24.1865 20.9611Z" fill="white"/>
<path d="M25.0396 22.9277L27.0965 22.1133L25.0396 22.9277Z" fill="white"/>
<path d="M21.489 14.7341L24.3983 15.8859L21.489 14.7341Z" fill="white"/>
<path d="M23.072 8.75375C23.072 10.3215 21.7432 11.5922 20.1048 11.5922C18.4646 11.5922 17.1355 10.3215 17.1355 8.75375C17.1355 7.18627 18.4646 5.91626 20.1048 5.91626C21.7429 5.91626 23.072 7.18627 23.072 8.75375Z" fill="white"/>
<path d="M21.5876 8.75367C21.5876 9.53804 20.9236 10.1735 20.1044 10.1735C19.2842 10.1735 18.6187 9.53804 18.6187 8.75367C18.6187 7.96995 19.2842 7.33447 20.1044 7.33447C20.9236 7.33412 21.5876 7.96995 21.5876 8.75367Z" fill="white" stroke="white" stroke-miterlimit="10" stroke-linecap="round" stroke-linejoin="round"/>
<path d="M18.0225 10.7769L13.9617 20.1472L12.9438 24.3522L13.6294 24.6237L16.0194 20.9616L16.588 19.651C16.1444 18.6263 16.6527 17.4515 17.7242 17.0279L20.0788 11.5913C19.278 11.5849 18.5534 11.2756 18.0225 10.7769Z" fill="white"/>
<path d="M22.1848 10.7761C21.6535 11.2755 20.9283 11.5848 20.1274 11.5909L23.6203 19.6493L25.6767 18.8353L22.1848 10.7761Z" fill="white"/>
<path d="M21.217 4.49677V1.30335C21.2166 0.714829 20.7166 0.23877 20.1038 0.23877C19.4889 0.23877 18.9906 0.714186 18.9902 1.30335L18.9906 4.49677H21.217Z" fill="white"/>
<path d="M20.1046 5.91605C20.2943 5.91605 20.4802 5.93426 20.6602 5.96687V4.49683H19.5474V5.96687C19.728 5.93394 19.913 5.91605 20.1046 5.91605Z" fill="white"/>
<path d="M4.64736 25.7978H0.94458V0.238037H4.64804C5.46625 0.238037 6.12914 0.874166 6.12914 1.65854V24.3786C6.12877 25.163 5.46557 25.7978 4.64736 25.7978Z" fill="white" stroke="white" stroke-miterlimit="10" stroke-linecap="round" stroke-linejoin="round"/>
<path d="M4.46279 2.36844C4.76963 2.36844 5.01841 2.12998 5.01841 1.83583C5.01841 1.54168 4.76963 1.30322 4.46279 1.30322C4.15595 1.30322 3.90723 1.54168 3.90723 1.83583C3.90723 2.12998 4.15595 2.36844 4.46279 2.36844Z" fill="white"/>
<path d="M8.72119 15.3267C8.72119 15.6197 8.97017 15.8589 9.27675 15.8589C9.58371 15.8589 9.83238 15.6197 9.83238 15.3267C9.83238 15.6197 10.0817 15.8589 10.3879 15.8589C10.6949 15.8589 10.9435 15.6197 10.9435 15.3267C10.9435 15.6197 10.6949 15.8589 10.3879 15.8589C10.0817 15.8589 9.83238 15.6197 9.83238 15.3267C9.83238 15.6197 9.58371 15.8589 9.27675 15.8589C8.97017 15.8589 8.72119 15.6197 8.72119 15.3267Z" fill="white"/>
<path d="M9.46209 0.238037C9.05345 0.238037 8.72119 0.55658 8.72119 0.948927V15.8588L9.83201 20.1187L10.9432 15.8588V0.94829C10.9432 0.556584 10.6113 0.238356 10.2023 0.238356L9.46209 0.238037Z" fill="white" stroke="white" stroke-miterlimit="10" stroke-linecap="round" stroke-linejoin="round"/>
</svg>
